<?xml version="1.0" encoding="utf-8"?>
<!-- Svg Vector Icons : http://www.onlinewebfonts.com/icon -->
<!DOCTYPE svg PUBLIC "-//W3C//DTD SVG 1.1//EN" "http://www.w3.org/Graphics/SVG/1.1/DTD/svg11.dtd">
<svg version="1.1" xmlns="http://www.w3.org/2000/svg" xmlns:xlink="http://www.w3.org/1999/xlink" x="0px" y="0px" viewBox="0 0 256 256" enable-background="new 0 0 256 256" xml:space="preserve">
<metadata> Svg Vector Icons : http://www.onlinewebfonts.com/icon </metadata>
<g><g><path fill="#000000" d="M185.4,141.9c-1-0.2-3-0.3-6.1-0.3h-4.1v12h4.6c3.3,0,5.6-0.2,6.7-0.7c1.1-0.4,2-1.1,2.7-2.1s1-2,1-3.3c0-1.5-0.4-2.8-1.3-3.8C187.9,142.8,186.8,142.2,185.4,141.9z M211.4,124.6c-2.7,0-5.4,0.4-8,1c0.6-2.6,0.9-5.2,0.9-7.9c0-19.2-15.5-34.8-34.6-34.8c-7.9,0-15.2,2.7-21,7.2C139,73.1,121,61.7,100.3,61.7c-28.6,0-52.1,21.7-55.2,49.5C25.2,114.4,10,131.7,10,152.5c0,23.1,18.6,41.8,41.6,41.8c0,0,0,0,0.1,0l0,0h166.6c16.1,0,27.7-18,27.7-34.8C246,140.2,230.5,124.6,211.4,124.6z M90.6,176.7h-8.5v-18.5H65.5v18.5H57v-42.2h8.5v16.6h16.6v-16.6h8.5V176.7z M128.3,141.6h-12.5v35.1h-8.5v-35.1H94.9v-7.2h33.4L128.3,141.6L128.3,141.6z M162.7,141.6h-12.5v35.1h-8.5v-35.1h-12.5v-7.2h33.4L162.7,141.6L162.7,141.6z M197.5,154c-0.9,1.8-2.1,3.2-3.6,4.2c-1.4,1-2.9,1.7-4.4,2c-2,0.4-4.9,0.6-8.8,0.6h-5.5v15.9h-8.5v-42.2h13.6c5.2,0,8.5,0.2,10.1,0.7c2.4,0.7,4.4,2,6.1,4.1c1.6,2.1,2.4,4.9,2.4,8.2C198.9,150.1,198.5,152.3,197.5,154z"/></g></g>
</svg>